<svg width="122" height="46" viewBox="0 0 122 46" fill="none" xmlns="http://www.w3.org/2000/svg">
<g clip-path="url(#clip0_1496_66)">
<rect width="121.983" height="45.6338" fill="#4D2C19"/>
<path d="M88.4822 45.7299V38.6582H89.9178V44.5286H93.4873V45.7299H88.4822Z" fill="#FFEFE2"/>
<path d="M83.8978 45.7336H82.3357L81.7149 44.114H78.873L78.2862 45.7336H76.7634L79.5326 38.6035H81.0506L83.8978 45.7336ZM81.2541 42.9127L80.2746 40.2668L79.3141 42.9127H81.2541Z" fill="#FFEFE2"/>
<path d="M69.9745 45.7336V39.8097H67.865V38.6035H73.5149V39.8097H71.4101V45.7336H69.9745Z" fill="#FFEFE2"/>
<path d="M57.4275 45.7336V38.6035H58.8243L61.7343 43.365V38.6035H63.0683V45.7336H61.6279L58.7615 41.084V45.7336H57.4275Z" fill="#FFEFE2"/>
<path d="M47.0369 45.7336V38.6035H52.3088V39.8097H48.4725V41.3903H52.042V42.5917H48.4725V44.5323H52.4446V45.7336H47.0369Z" fill="#FFEFE2"/>
<path d="M36.0759 38.6035H38.6997C39.2915 38.6035 39.7425 38.6489 40.0529 38.7397C40.47 38.8629 40.8273 39.0818 41.1248 39.3963C41.4222 39.7108 41.6486 40.0967 41.8038 40.5538C41.959 41.0077 42.0366 41.5687 42.0366 42.2366C42.0366 42.8235 41.9638 43.3294 41.8183 43.7541C41.6405 44.2729 41.3866 44.6928 41.0569 45.0138C40.8079 45.257 40.4716 45.4466 40.0481 45.5828C39.7312 45.6833 39.3076 45.7336 38.7773 45.7336H36.0759V38.6035ZM37.5115 39.8097V44.5323H38.5833C38.9843 44.5323 39.2737 44.5096 39.4515 44.4642C39.6843 44.4058 39.8767 44.3069 40.0287 44.1675C40.1839 44.0281 40.31 43.7995 40.407 43.4817C40.504 43.1607 40.5525 42.7246 40.5525 42.1734C40.5525 41.6222 40.504 41.1991 40.407 40.904C40.31 40.609 40.1742 40.3787 39.9995 40.2134C39.8249 40.048 39.6035 39.9361 39.3351 39.8778C39.1346 39.8324 38.7418 39.8097 38.1565 39.8097H37.5115Z" fill="#FFEFE2"/>
<path d="M10.867 9.6571C12.2736 8.60934 14.1554 8.23203 15.9535 8.21094C17.6848 8.21094 19.4828 8.49444 20.9561 9.34871C21.84 9.87162 22.6121 10.6685 22.7369 11.6396C22.8423 12.4192 22.724 13.3405 21.9949 13.8673C21.2378 14.3729 20.2421 14.4534 19.3237 14.4592C19.3108 13.3999 19.2204 12.2851 18.6333 11.3389C18.2462 10.7087 17.5321 10.2375 16.7278 10.1417C15.6287 10.0019 14.4286 10.1858 13.5382 10.8045C12.5467 11.54 12.052 12.6586 11.7466 13.7447C11.2584 15.5452 11.1982 17.4109 11.2132 19.2554C11.2455 20.7189 11.3961 22.2014 11.9294 23.5959C12.2929 24.5306 12.8758 25.4424 13.8071 26.0132C14.9985 26.7602 16.5342 26.9019 17.9472 26.7564C19.7173 26.5706 21.3454 25.5688 22.1626 24.159C22.8337 24.7413 22.9541 25.6818 22.6466 26.4422C22.3304 27.2563 21.6013 27.8846 20.784 28.3156C19.5086 28.9783 18.0182 29.2407 16.5535 29.2637C14.9512 29.3001 13.3124 29.0281 11.9058 28.3251C10.454 27.5915 9.37222 26.3733 8.71194 25.0229C7.7269 23.048 7.47957 20.8568 7.49032 18.7172C7.50538 16.865 7.66883 14.9859 8.32911 13.2179C8.82163 11.8695 9.6217 10.5689 10.8713 9.66094L10.867 9.6571Z" fill="#E9811F"/>
<path d="M27.1689 2.07397C27.1539 1.53956 27.1431 1.00515 27.1732 0.472656C29.5928 0.495641 32.0124 0.464994 34.4341 0.489894C34.4234 8.51373 34.4341 16.5376 34.4298 24.5633C34.4255 25.3123 34.4234 26.1244 34.9073 26.7737C35.2536 27.266 35.8902 27.5342 36.5203 27.607C37.0301 27.674 37.5462 27.6855 38.0603 27.6663C38.0947 28.1989 38.0689 28.7333 38.0732 29.2657C34.4492 29.2639 30.823 29.2734 27.199 29.26L27.1625 29.2294C27.1453 28.7122 27.1625 28.1912 27.1582 27.6721C28.0636 27.6625 29.068 27.7162 29.8423 27.222C30.5972 26.7182 30.808 25.8218 30.8037 25.0268C30.8037 18.2059 30.8037 11.385 30.8037 4.56598C30.8123 3.81512 30.5843 2.97807 29.8681 2.51261C29.0874 2.02034 28.0765 2.07589 27.1668 2.07397H27.1689Z" fill="#E9811F"/>
<path d="M48.8234 8.24037C50.445 8.13887 52.1247 8.28634 53.6152 8.89548C54.8605 9.39154 55.9145 10.2267 56.667 11.2362C57.5273 12.3778 58.0327 13.7013 58.3297 15.0422C58.6932 16.7297 58.7402 18.4593 58.6391 20.1717C58.5275 21.8152 58.2243 23.4759 57.4823 24.9948C56.9147 26.1633 56.0261 27.2225 54.8497 27.9581C53.6152 28.7415 52.1118 29.1341 50.6106 29.2318C48.9696 29.3449 47.2727 29.1859 45.7693 28.5614C44.4466 28.027 43.3454 27.1057 42.5862 26.01C41.8076 24.8933 41.3409 23.6253 41.0635 22.3419C40.7473 20.846 40.6807 19.3193 40.7323 17.8004C40.8011 16.2125 41.0226 14.6131 41.6162 13.1056C42.1195 11.8376 42.9282 10.6328 44.1197 9.78423C45.4359 8.8131 47.1372 8.34379 48.8255 8.24037H48.8234ZM49.0083 10.2382C48.1071 10.3167 47.2232 10.6385 46.5672 11.2036C45.5951 12.0272 45.137 13.2014 44.8552 14.343C44.4208 16.2604 44.3971 18.2314 44.4746 20.1775C44.5713 21.7309 44.7412 23.3226 45.4446 24.765C45.9091 25.7342 46.7242 26.623 47.8534 27.0099C48.9244 27.3719 50.1332 27.3892 51.2344 27.1172C52.4 26.8279 53.312 25.9986 53.8195 25.0408C54.6346 23.5314 54.8067 21.8305 54.9099 20.1794C54.9895 18.2141 54.9616 16.2259 54.5164 14.2932C54.2153 13.0865 53.6991 11.8357 52.5936 11.0293C51.6043 10.3014 50.2536 10.1252 49.0105 10.2382H49.0083Z" fill="#E9811F"/>
<path d="M90.0272 8.90442C91.4144 8.30104 92.9975 8.13628 94.5265 8.23975C96.1892 8.34701 97.847 8.91398 99.0388 9.97129C100.325 11.0938 101.037 12.6319 101.396 14.1795C101.777 15.7617 101.723 17.3879 101.714 18.9969C97.4471 18.9931 93.1824 19.0084 88.9174 18.9892C88.8872 19.855 88.9863 20.7228 89.1133 21.5809C89.3389 22.8853 89.7369 24.2185 90.6533 25.2854C91.253 25.9941 92.1262 26.5093 93.0962 26.7181C94.8858 27.107 96.8622 26.8062 98.3806 25.8696C99.0795 25.4444 99.7056 24.9042 100.125 24.2453C100.458 24.3659 100.645 24.6743 100.772 24.9578C101.058 25.7221 100.689 26.5438 100.162 27.1529C99.2323 28.1949 97.8001 28.7657 96.3784 29.0703C94.3737 29.4246 92.2101 29.3461 90.339 28.5646C88.9025 27.9804 87.728 26.9556 86.9386 25.7489C85.7171 23.8852 85.2678 21.7015 85.1878 19.5677C85.1452 18.0296 85.229 16.48 85.5514 14.9649C85.8119 13.7677 86.2292 12.584 86.928 11.5286C87.659 10.4234 88.7219 9.47138 90.0272 8.91013V8.90442ZM91.1543 11.0555C90.408 11.6569 89.9606 12.4882 89.6507 13.3272C89.2273 14.4994 89.0505 15.7311 88.9734 16.957C91.9265 16.957 94.8791 16.9704 97.8303 16.9493C97.813 15.6832 97.7249 14.4056 97.3441 13.1797C97.0667 12.3082 96.6212 11.4271 95.7978 10.8562C95.1009 10.3467 94.1587 10.1993 93.2792 10.2606C92.4984 10.3065 91.7286 10.5804 91.1519 11.0555H91.1543Z" fill="#E9811F"/>
<path d="M60.9334 8.94141C64.138 8.94328 67.3426 8.94141 70.5476 8.94141C70.5558 9.47004 70.539 9.9968 70.5582 10.5255C69.8483 10.5484 69.0742 10.5102 68.4592 10.8856C67.9021 11.2112 67.732 11.849 67.7517 12.4084C67.7646 13.1554 68.1042 13.8545 68.3428 14.5613C69.0378 16.4576 69.7257 18.3539 70.4207 20.2502C70.8724 21.4608 71.281 22.6828 71.6484 23.9145C71.9152 24.8109 72.1949 25.7093 72.3607 26.6268C72.3861 26.6191 72.4421 26.6076 72.468 26.6C73.0596 24.7113 73.8576 22.8801 74.5497 21.0222C75.3928 18.7734 76.2339 16.5228 77.077 14.2759C77.3673 13.5576 77.5996 12.7915 77.4966 12.0234C77.4382 11.5847 77.2063 11.1384 76.7719 10.9009C76.1544 10.5465 75.3971 10.5523 74.6939 10.5216C74.7198 9.99488 74.6963 9.46812 74.7069 8.94141C77.4578 8.94712 80.2064 8.94141 82.9549 8.94333C82.9463 9.4758 82.9702 10.0102 82.942 10.5427C82.3423 10.537 81.6798 10.5082 81.1615 10.8224C80.6624 11.148 80.3826 11.6594 80.1355 12.1498C79.6191 13.2186 79.2426 14.3372 78.8062 15.4328C77.7567 18.1624 76.7029 20.8919 75.6534 23.6214C74.9176 25.5024 74.2207 27.3948 73.4638 29.2682C72.3022 29.2529 71.1411 29.2624 69.9776 29.2643C67.8719 23.6501 65.816 18.0187 63.7232 12.4007C63.4866 11.8395 63.2111 11.2418 62.6435 10.8818C62.1487 10.5657 61.5121 10.5446 60.9272 10.535C60.9186 10.0045 60.9143 9.47196 60.9315 8.94141H60.9334Z" fill="#E9811F"/>
<path d="M114.117 6.74121C114.996 6.74313 115.876 6.74313 116.756 6.74121C118.498 8.62795 119.954 10.7426 120.917 13.0354C121.636 14.8015 121.948 16.6863 121.958 18.5615C121.98 20.2088 121.743 21.858 121.221 23.4402C120.356 26.1122 118.707 28.5314 116.75 30.6786C115.872 30.6729 114.992 30.6729 114.115 30.6786C115.952 28.4663 117.171 25.8766 117.79 23.1854C118.621 19.6188 118.446 15.8646 117.259 12.3784C116.579 10.3595 115.519 8.44023 114.115 6.74121H114.117Z" fill="#FFEFE2"/>
<path d="M107.172 11.3896C108.548 11.3896 109.925 11.3896 111.302 11.3896C111.302 12.6251 111.302 13.8587 111.302 15.0942C109.923 15.0942 108.546 15.0942 107.17 15.0942C107.17 13.8606 107.17 12.6251 107.17 11.3916L107.172 11.3896Z" fill="#FFEFE2"/>
<path d="M107.116 22.0215C108.493 22.0215 109.869 22.0272 111.246 22.0195C111.246 23.255 111.246 24.4905 111.246 25.7259C109.869 25.7259 108.493 25.7259 107.116 25.7259C107.115 24.4905 107.115 23.2569 107.116 22.0215Z" fill="#FFEFE2"/>
</g>
<defs>
<clipPath id="clip0_1496_66">
<rect width="121.983" height="45.6338" fill="white"/>
</clipPath>
</defs>
</svg>
