<svg width="80" height="80" viewBox="0 0 80 80" fill="none" xmlns="http://www.w3.org/2000/svg">
<rect width="80" height="80" fill="white"/>
<circle cx="52.5821" cy="32.2389" r="18.8277" fill="#F0F9FF"/>
<circle cx="50.9449" cy="31.4203" r="18.8277" stroke="black" stroke-width="1.48148"/>
<line x1="44.3937" y1="22.4931" x2="58.3099" y2="22.4931" stroke="white" stroke-width="1.48148"/>
<line x1="44.3937" y1="27.4048" x2="58.3099" y2="27.4048" stroke="white" stroke-width="1.48148"/>
<path d="M45.2123 22.4963L48.5225 22.4963C49.7504 22.4959 53.8076 22.8251 53.8076 27.327C53.8076 31.4202 48.896 31.4202 45.2123 31.4202L53.8076 40.4248" stroke="white" stroke-width="1.48148" stroke-linejoin="bevel"/>
<line x1="43.5783" y1="22.4934" x2="57.4945" y2="22.4934" stroke="black" stroke-width="1.48148"/>
<line x1="43.5783" y1="27.4048" x2="57.4945" y2="27.4048" stroke="black" stroke-width="1.48148"/>
<path d="M44.449 22.4927L47.7538 22.4925C48.9817 22.4921 52.9922 22.8251 52.9922 27.327C52.9922 31.4202 48.0806 31.4202 44.3969 31.4202L52.9922 40.4248" stroke="black" stroke-width="1.48148" stroke-linejoin="bevel"/>
<path d="M19.0224 44.4282L28.8456 39.5166C30.7557 38.5616 34.1665 37.0607 38.6688 38.698C42.1092 39.9492 48.7082 42.5808 52.1756 44.0187C57.9497 46.4133 55.7591 52.276 50.3706 51.3309C51.8265 51.6632 53.3565 51.4142 54.6335 50.6339L68.1382 42.3815C72.6405 39.5164 75.9149 46.0067 72.6405 48.1117C68.0564 51.0586 57.0872 58.2077 51.7663 61.6185C50.9868 62.1181 49.1468 62.2734 46.8547 61.6185C44.5627 60.9636 34.9851 57.7984 30.4828 56.2976L26.7991 57.9348L19.0224 44.4282Z" fill="white"/>
<path d="M19.841 46.0654L29.6642 41.1538C31.5742 40.1988 34.985 38.6979 39.4873 40.3352C42.9278 41.5864 49.5268 44.218 52.9942 45.6559C58.7683 48.0505 56.5777 53.9132 51.1892 52.9681C52.6451 53.3004 54.1751 53.0514 55.452 52.2711L68.9568 44.0187C73.4591 41.1536 76.7335 47.6439 73.4591 49.7489C68.875 52.6958 57.9058 59.8449 52.5849 63.2557C51.8054 63.7553 49.9654 63.9106 47.6733 63.2557C45.3812 62.6008 35.8036 59.4356 31.3014 57.9348L27.6177 59.572L19.841 46.0654Z" fill="white"/>
<path d="M18.1593 42.9662L9.56592 47.8767C8.7782 48.3268 8.50673 49.3316 8.9606 50.1172L17.9513 65.6779C18.4071 66.467 19.4195 66.7319 20.2035 66.2673L28.4607 61.3742C29.2233 60.9223 29.4877 59.9455 29.0572 59.1706L20.4027 43.5926C19.9599 42.7954 18.951 42.5137 18.1593 42.9662Z" fill="#DAEDFB"/>
<path d="M15.9465 42.4752L7.35315 47.3857C6.56544 47.8358 6.29396 48.8407 6.74784 49.6262L15.7385 65.187C16.1944 65.976 17.2068 66.2409 17.9907 65.7764L26.2479 60.8832C27.0105 60.4313 27.2749 59.4545 26.8444 58.6797L18.19 43.1016C17.7471 42.3044 16.7383 42.0228 15.9465 42.4752Z" stroke="black" stroke-width="1.48148"/>
<path d="M49.3105 51.0671C55.45 53.0318 58.3151 46.5649 52.1756 44.0187C48.7082 42.5808 42.1092 39.9492 38.6688 38.698C34.1665 37.0607 30.7557 38.5616 28.8456 39.5166L19.0224 44.4282L26.7991 57.9348L30.4828 56.2976C34.9851 57.7984 44.5627 60.9636 46.8547 61.6185C49.1468 62.2734 50.9868 62.1181 51.7663 61.6185C57.0872 58.2077 68.0564 51.0586 72.6405 48.1117C75.9149 46.0067 72.6405 39.5164 68.1382 42.3815L54.6335 50.6339C53.3229 51.4347 51.7458 51.676 50.2558 51.3035L49.3105 51.0671ZM49.3105 51.0671C46.8547 50.2813 43.171 49.1758 41.1245 48.521L49.3105 51.0671Z" stroke="black" stroke-width="1.48148"/>
</svg>
